<svg xmlns="http://www.w3.org/2000/svg" viewBox="0 0 48 48">
  <defs>
    <linearGradient id="g" x1="0" y1="0" x2="48" y2="48" gradientUnits="userSpaceOnUse">
      <stop offset="0%"   stop-color="#06b6d4"/>
      <stop offset="52%"  stop-color="#8b5cf6"/>
      <stop offset="100%" stop-color="#ec4899"/>
    </linearGradient>
  </defs>

  <!-- Hexagon body (flat-top, inradius 13) -->
  <polygon points="16.5,11 31.5,11 39,24 31.5,37 16.5,37 9,24" fill="url(#g)"/>

  <!-- 6 gear teeth — same rect rotated every 60° around centre -->
  <rect x="21" y="6"  width="6" height="5" rx="1.5" fill="url(#g)"/>
  <rect x="21" y="6"  width="6" height="5" rx="1.5" fill="url(#g)" transform="rotate(60,24,24)"/>
  <rect x="21" y="6"  width="6" height="5" rx="1.5" fill="url(#g)" transform="rotate(120,24,24)"/>
  <rect x="21" y="6"  width="6" height="5" rx="1.5" fill="url(#g)" transform="rotate(180,24,24)"/>
  <rect x="21" y="6"  width="6" height="5" rx="1.5" fill="url(#g)" transform="rotate(240,24,24)"/>
  <rect x="21" y="6"  width="6" height="5" rx="1.5" fill="url(#g)" transform="rotate(300,24,24)"/>

  <!-- Centre hub hole -->
  <circle cx="24" cy="24" r="8" fill="#09090b" opacity="0.55"/>

  <!-- "AI" label in hub -->
  <text x="24" y="27.5"
        text-anchor="middle"
        font-family="Inter,system-ui,sans-serif"
        font-size="8.5" font-weight="800"
        fill="white" letter-spacing="0.8">AI</text>
</svg>
